<?xml version="1.0" encoding="utf-8"?>
<!-- Generator: Adobe Illustrator 15.0.0, SVG Export Plug-In . SVG Version: 6.00 Build 0)  -->
<!DOCTYPE svg PUBLIC "-//W3C//DTD SVG 1.1//EN" "http://www.w3.org/Graphics/SVG/1.1/DTD/svg11.dtd">
<svg version="1.1"
	 id="svg3960" xmlns:dc="http://purl.org/dc/elements/1.1/" xmlns:rdf="http://www.w3.org/1999/02/22-rdf-syntax-ns#" xmlns:cc="http://creativecommons.org/ns#" xmlns:svg="http://www.w3.org/2000/svg"
	 xmlns="http://www.w3.org/2000/svg" xmlns:xlink="http://www.w3.org/1999/xlink" x="0px" y="0px" width="879.087px"
	 height="916.971px" viewBox="-135.724 -72.533 879.087 916.971" enable-background="new -135.724 -72.533 879.087 916.971"
	 xml:space="preserve">
<path id="path3961" fill="#FA9C1E" d="M296.704,0.004c-66.766,0.428-132.772,24.228-184.63,66.083l56.662,65.786
	c47.821-37.739,112.256-53.118,172.018-41.237c32.844,6.318,64.096,20.74,90.464,41.237l56.661-65.786
	C434.241,22.804,365.767-1.031,296.704,0.004z"/>
<path id="path4052" fill="#4A4C4E" d="M93.628,82.253c-59.704,56.089-94.71,137.625-93.603,219.87
	c0.036,85.371,38.979,169.229,103.652,224.695c59.781,52.285,141.085,78.919,220.461,72.182
	c86.011-6.405,167.648-52.345,218.117-122.143c49.125-66.329,68.371-153.798,52.064-234.909
	c-11.988-62.091-44.541-119.635-90.838-162.406l-56.661,65.786c45.655,43.035,70.585,106.557,65.885,169.225
	c-2.056,31.049-11.073,61.689-26.314,88.959L370.92,291.974l-58.261-125.583l-0.087,190.178l116.695,112.927
	c-52.002,40.401-123.354,53.803-186.578,35.894c-25.744-7.181-50.122-19.23-71.309-35.397l117.488-113.423
	c-0.205-61.831,0.718-128.577,0-190.383l-58.347,125.787L114.058,404.438c-35.53-62.025-36.38-142.21-2.182-204.927
	c10.691-20.092,24.841-38.428,41.257-54.183L96.471,79.542C95.523,80.446,94.576,81.349,93.628,82.253z"/>
<path id="rect4003_1_" fill="#FA9C1E" d="M-66.188,638.947v34.02h54.056v91.98h43.081v-91.98h42.794l22.563-34.02H-66.188
	L-66.188,638.947z"/>
<path id="rect3776_1_" fill="#FA9C1E" d="M134.056,638.469c-18.149,0-32.75,11.258-32.75,25.219v75.594
	c0,9.41,6.645,17.578,16.531,21.906l27.25-27.25v-3.781V672.5h78.375v57.656h-57l-34.281,34.28c0.622,0.027,1.244,0.031,1.875,0.031
	h99.594c18.149,0,32.75-11.228,32.75-25.188v-67.936l-19.344-30.656c-4.088-1.404-8.625-2.219-13.406-2.219H134.056z"/>
<path id="rect3776_2_" fill="#FA9C1E" d="M306.125,637.938c-18.149,0-32.75,11.258-32.75,25.219v75.595
	c0,9.409,6.646,17.577,16.531,21.905l27.25-27.25v-3.78v-57.657h78.375v57.656h-57l-34.281,34.281
	c0.621,0.026,1.244,0.03,1.875,0.03h99.594c18.148,0,32.75-11.227,32.75-25.188v-67.937l-19.344-30.656
	c-4.088-1.403-8.625-2.219-13.406-2.219H306.125z"/>
<path id="rect4003_3_" fill="#FA9C1E" d="M567.688,763.885l-22.563-34.02h-52.51v-91.981h-43.082v126.001"/>
<path fill="#FA9C1E" d="M666.188,666.849h-76.27l0.02,19.5h50.25c0,0,10.084-1.213,18,5.954c7.918,7.167,8,13.833,8,13.833v34.25
	c0,0-2.25,10.583-9.084,16.583c-6.832,6-17.082,6.956-17.082,6.956l-57.365-0.036l-22.33-34.01l71.945,0.09l0.082-18.75h-53.5
	c0,0-7.916-0.333-12.582-5.083c-4.668-4.75-6.795-12.084-6.795-12.084v-34.354c0,0,0.512-5.638,9.66-14.291
	c9.148-8.654,14.291-7.518,14.291-7.518h82.76V666.849z"/>
<rect x="-135.724" y="-72.533" fill="none" width="879.087" height="916.971"/>
</svg>
