<?xml version="1.0" encoding="utf-8"?>
<!-- Generator: Adobe Illustrator 15.0.0, SVG Export Plug-In . SVG Version: 6.00 Build 0)  -->
<!DOCTYPE svg PUBLIC "-//W3C//DTD SVG 1.1//EN" "http://www.w3.org/Graphics/SVG/1.1/DTD/svg11.dtd">
<svg version="1.1"
	 id="svg3041" xmlns:dc="http://purl.org/dc/elements/1.1/" xmlns:rdf="http://www.w3.org/1999/02/22-rdf-syntax-ns#" xmlns:cc="http://creativecommons.org/ns#" xmlns:svg="http://www.w3.org/2000/svg"
	 xmlns="http://www.w3.org/2000/svg" xmlns:xlink="http://www.w3.org/1999/xlink" x="0px" y="0px" width="2556.5px" height="235px"
	 viewBox="0 0 2556.5 235" enable-background="new 0 0 2556.5 235" xml:space="preserve">
<path id="rect3776" fill="#FFFFFF" d="M31.938,53.969c-18.149,0-32.75,11.258-32.75,25.219v75.594
	c0,9.41,6.645,17.578,16.531,21.906l27.25-27.25v-3.781V88h78.375v57.656h-57l-34.281,34.281c0.622,0.027,1.244,0.031,1.875,0.031
	h99.594c18.149,0,32.75-11.227,32.75-25.188V86.844l-19.344-30.656c-4.088-1.404-8.625-2.219-13.406-2.219H31.938z"/>
<path id="rect3776-0" fill="#FFFFFF" d="M1195.453,53.978c-1.674,0-3.31,0.091-4.914,0.276l-27.847,42.052v58.472
	c0,13.96,14.611,25.2,32.761,25.2h90.707c18.149,0,32.761-11.24,32.761-25.2v-25.87h-43.695v16.734h-68.348V87.998h68.348v14.372
	h43.695V79.178c0-13.961-14.611-25.2-32.761-25.2H1195.453L1195.453,53.978z"/>
<path id="path3863" fill="#FFFFFF" d="M159.266,53.978l79.609,126h15.684h15.725l79.609-126h-48.486l-46.848,74.93l-46.807-74.93
	H159.266L159.266,53.978z"/>
<path id="rect3885" fill="#FFFFFF" d="M367.093,53.978l-20.517,32.484v93.516h133.01v-34.336h-29.485h-60.484v-14.371h60.484V102.37
	h-60.484V87.998h89.97v-34.02H367.093L367.093,53.978z"/>
<path id="rect3950" fill="#FFFFFF" d="M496.417,53.978v22.68v32.484v70.836h43.53v-34.336v-13.82V87.998h18.429h47.667v18.585
	h-47.667v25.239l52.786,48.156h58.56l-52.786-48.156h4.914c14.52,0,26.209-10.115,26.209-22.68V76.658
	c0-12.565-11.689-22.68-26.209-22.68h-81.902h-17.322H496.417L496.417,53.978z"/>
<path id="path3863-2" fill="#FFFFFF" d="M843.802,179.979l83.34-126h16.42h16.462l83.341,126h-50.759l-49.044-74.931l-49.001,74.931
	H843.802z"/>
<path id="path3982" fill="#FFFFFF" d="M655.185,53.978l55.243,126h27.478l28.789-62.095l27.396,62.095h30.017l55.284-126h-42.958
	l-26.208,62.96l-27.806-62.96h-15.726h-12.899l-27.807,62.96l-26.454-62.96H655.185L655.185,53.978z"/>
<path id="rect4003" fill="#FFFFFF" d="M1009.125,53.978v34.02h54.056v91.98h43.081v-91.98h42.794l22.563-34.02H1009.125
	L1009.125,53.978z"/>
<path id="path4072" fill="#FA9C1E" d="M219.583,53.978l34.996-51.616l34.997,51.616h-34.997H219.583z"/>
<path id="path4072-1" fill="#FA9C1E" d="M908.587,179.979l34.995,51.615l34.997-51.615h-34.997H908.587z"/>
<path id="rect4003_1_" fill="#FFFFFF" d="M1574.125,52.978v34.02h54.056v91.98h43.081v-91.98h42.794l22.563-34.02H1574.125
	L1574.125,52.978z"/>
<path id="rect3776_1_" fill="#FFFFFF" d="M1774.369,52.5c-18.149,0-32.75,11.258-32.75,25.219v75.594
	c0,9.41,6.645,17.578,16.531,21.906l27.25-27.25v-3.781V86.531h78.375v57.656h-57l-34.281,34.281
	c0.622,0.027,1.244,0.031,1.875,0.031h99.594c18.149,0,32.75-11.227,32.75-25.188V85.375l-19.344-30.656
	c-4.088-1.404-8.625-2.219-13.406-2.219H1774.369z"/>
<path id="rect3776_2_" fill="#FFFFFF" d="M1946.438,51.969c-18.149,0-32.75,11.258-32.75,25.219v75.594
	c0,9.41,6.645,17.578,16.531,21.906l27.25-27.25v-3.781V86h78.375v57.656h-57l-34.281,34.281c0.622,0.027,1.244,0.031,1.875,0.031
	h99.594c18.149,0,32.75-11.227,32.75-25.188V84.844l-19.344-30.656c-4.088-1.404-8.625-2.219-13.406-2.219H1946.438z"/>
<path id="rect4003_3_" fill="#FFFFFF" d="M2208,177.916l-22.563-34.02h-52.509V51.915h-43.081v126.001"/>
<path id="rect4024" fill="#FFFFFF" d="M1331.088,56.978v126.001h44.228v-48.393h74.653v48.393h43.531V56.978h-43.531v44.297h-74.653
	V56.978H1331.088z"/>
<path fill="#FFFFFF" d="M2306.501,80.88h-76.271l0.021,19.5h50.25c0,0,10.083-1.213,18,5.954s8,13.833,8,13.833v34.25
	c0,0-2.251,10.583-9.084,16.583s-17.083,6.956-17.083,6.956l-57.364-0.036l-22.33-34.01l71.944,0.09l0.083-18.75h-53.5
	c0,0-7.916-0.333-12.583-5.083s-6.794-12.084-6.794-12.084V73.729c0,0,0.512-5.638,9.66-14.292s14.291-7.517,14.291-7.517h82.76
	V80.88z"/>
</svg>
